<svg width="25" height="25" viewBox="0 0 25 25" fill="none" xmlns="http://www.w3.org/2000/svg">
<path d="M12.5 25C19.4036 25 25 19.4036 25 12.5C25 5.59644 19.4036 0 12.5 0C5.59644 0 0 5.59644 0 12.5C0 19.4036 5.59644 25 12.5 25Z" fill="url(#paint0_linear_148_276)"/>
<path d="M4.65543 13.1114C6.11668 12.3065 7.74782 11.6348 9.27189 10.9595C11.8939 9.85361 14.5263 8.76684 17.1852 7.75506C17.7026 7.58268 18.6321 7.41412 18.7232 8.18075C18.6733 9.26596 18.468 10.3448 18.3272 11.4237C17.9698 13.7962 17.5566 16.1605 17.1538 18.5252C17.0149 19.3129 16.0282 19.7206 15.3969 19.2166C13.8796 18.1917 12.3506 17.1768 10.8527 16.1281C10.362 15.6296 10.817 14.9136 11.2553 14.5575C12.5049 13.326 13.8303 12.2796 15.0146 10.9844C15.3341 10.2129 14.3901 10.8631 14.0788 11.0623C12.3679 12.2413 10.699 13.4922 8.89524 14.5284C7.97389 15.0355 6.90003 14.6021 5.9791 14.3191C5.15338 13.9772 3.94337 13.6328 4.65535 13.1115L4.65543 13.1114Z" fill="white"/>
<defs>
<linearGradient id="paint0_linear_148_276" x1="16.6677" y1="4.1675" x2="10.4177" y2="18.75" gradientUnits="userSpaceOnUse">
<stop stop-color="#37AEE2"/>
<stop offset="1" stop-color="#1E96C8"/>
</linearGradient>
</defs>
</svg>
