<svg width="25" height="25" viewBox="0 0 25 25" fill="none" xmlns="http://www.w3.org/2000/svg">
<g clip-path="url(#clip0_148_271)">
<path fill-rule="evenodd" clip-rule="evenodd" d="M10.1644 9.84381V8.8687C9.82596 8.82077 9.48468 8.7959 9.14289 8.79427C4.96305 8.79427 1.5625 12.1954 1.5625 16.3752C1.5625 18.9392 2.84393 21.2089 4.79872 22.5814C3.48983 21.1817 2.76215 19.3366 2.7632 17.4202C2.7632 13.2999 6.06699 9.94 10.1644 9.84381Z" fill="#00F2EA"/>
<path fill-rule="evenodd" clip-rule="evenodd" d="M10.343 20.882C12.2079 20.882 13.7292 19.3984 13.7985 17.5496L13.8048 1.04496H16.82C16.7556 0.700354 16.723 0.350565 16.7226 0H12.6047L12.5978 16.5052C12.5291 18.3535 11.0072 19.8365 9.14283 19.8365C8.58311 19.8367 8.03179 19.7003 7.53674 19.4391C7.8564 19.8851 8.27763 20.2485 8.7656 20.4994C9.25357 20.7503 9.79426 20.8815 10.343 20.882ZM22.4525 6.64708V5.72981C21.3444 5.73084 20.26 5.40847 19.3325 4.80223C20.1457 5.73857 21.2407 6.38591 22.453 6.64708" fill="#00F2EA"/>
<path fill-rule="evenodd" clip-rule="evenodd" d="M19.3325 4.80166C18.4235 3.76155 17.9228 2.4269 17.9234 1.04553H16.82C16.9629 1.80904 17.2592 2.53561 17.6911 3.18124C18.1229 3.82688 18.6813 4.37814 19.3325 4.80166ZM9.14285 12.9128C8.22504 12.9139 7.34513 13.279 6.69615 13.9279C6.04716 14.5769 5.68209 15.4568 5.68103 16.3747C5.68164 17.006 5.85478 17.6252 6.18175 18.1653C6.50871 18.7054 6.97706 19.1459 7.53619 19.4391C7.11047 18.852 6.8812 18.1454 6.88116 17.4202C6.88207 16.5023 7.24707 15.6222 7.89607 14.9731C8.54508 14.324 9.42507 13.9589 10.343 13.9578C10.6997 13.9578 11.0415 14.0168 11.3645 14.1181V9.91366C11.026 9.86572 10.6848 9.84085 10.343 9.83922C10.2829 9.83922 10.2239 9.84266 10.1643 9.8438V13.0732C9.83399 12.968 9.48952 12.9139 9.14285 12.9128Z" fill="#FF004F"/>
<path fill-rule="evenodd" clip-rule="evenodd" d="M22.4525 6.64709V9.84781C20.3168 9.84781 18.3385 9.16472 16.7227 8.00525V16.3747C16.7227 20.5545 13.3227 23.955 9.14287 23.955C7.52762 23.955 6.02975 23.4454 4.79871 22.5809C5.50647 23.3441 6.36425 23.953 7.3183 24.3692C8.27235 24.7855 9.30209 25.0003 10.343 25C14.5228 25 17.9234 21.5994 17.9234 17.4202V9.05078C19.5926 10.2511 21.5972 10.8957 23.6532 10.8933V6.7742C23.2409 6.7742 22.8401 6.72954 22.4525 6.64651" fill="#FF004F"/>
<path fill-rule="evenodd" clip-rule="evenodd" d="M16.7227 16.3747V8.00525C18.3918 9.20569 20.3965 9.85034 22.4525 9.84781V6.64709C21.2403 6.38564 20.1455 5.7381 19.3325 4.80166C18.6814 4.37814 18.123 3.82688 17.6911 3.18124C17.2592 2.53561 16.9629 1.80904 16.82 1.04553H13.8048L13.7985 17.5502C13.7292 19.3984 12.2079 20.882 10.343 20.882C9.79431 20.8814 9.25364 20.7503 8.76568 20.4994C8.27771 20.2485 7.85647 19.885 7.53679 19.4391C6.97755 19.1459 6.50908 18.7055 6.18201 18.1654C5.85495 17.6253 5.68172 17.0061 5.68105 16.3747C5.68211 15.4568 6.04718 14.5769 6.69617 13.9279C7.34516 13.279 8.22507 12.9139 9.14287 12.9128C9.49902 12.9128 9.84085 12.9712 10.1644 13.0732V9.8438C6.06697 9.93999 2.76318 13.2999 2.76318 17.4202C2.76318 19.4128 3.53731 21.2267 4.79871 22.5814C6.07033 23.4766 7.58777 23.9564 9.14287 23.955C13.3227 23.955 16.7227 20.5545 16.7227 16.3747Z" fill="white"/>
</g>
<defs>
<clipPath id="clip0_148_271">
<rect width="25" height="25" fill="white"/>
</clipPath>
</defs>
</svg>
