<svg width="26" height="26" viewBox="0 0 26 26" fill="none" xmlns="http://www.w3.org/2000/svg">
<path fill-rule="evenodd" clip-rule="evenodd" d="M9.61054 0.947937H17.2852C24.2894 0.947937 25.9479 2.60637 25.9479 9.6106V17.2853C25.9479 24.2895 24.2894 25.9479 17.2852 25.9479H9.61054C2.60631 25.9479 0.947876 24.2895 0.947876 17.2853V9.6106C0.947876 2.60637 2.60631 0.947937 9.61054 0.947937Z" fill="#4680C2"/>
<path fill-rule="evenodd" clip-rule="evenodd" d="M21.4136 9.55766C21.5371 9.16951 21.4136 8.88723 20.8667 8.88723H19.0495C18.5907 8.88723 18.379 9.13423 18.2555 9.39887C18.2555 9.39887 17.3205 11.6572 16.0149 13.1215C15.5915 13.545 15.3974 13.6861 15.168 13.6861C15.0445 13.6861 14.8857 13.545 14.8857 13.1568V9.54001C14.8857 9.0813 14.7446 8.86958 14.3564 8.86958H11.4983C11.216 8.86958 11.0396 9.0813 11.0396 9.29301C11.0396 9.73408 11.6924 9.83994 11.7629 11.0749V13.7567C11.7629 14.3389 11.6571 14.4447 11.4277 14.4447C10.8102 14.4447 9.31058 12.1688 8.41079 9.5753C8.23436 9.06366 8.05793 8.86958 7.59921 8.86958H5.76435C5.23507 8.86958 5.14685 9.11658 5.14685 9.38123C5.14685 9.85758 5.76435 12.257 8.02264 15.4327C9.52229 17.6028 11.6571 18.7673 13.5802 18.7673C14.7446 18.7673 14.8857 18.5026 14.8857 18.0615V16.4207C14.8857 15.8915 14.9916 15.8032 15.3621 15.8032C15.6267 15.8032 16.1031 15.9444 17.1793 16.9853C18.4143 18.2203 18.626 18.7849 19.3141 18.7849H21.1313C21.6606 18.7849 21.9076 18.5203 21.7665 18.0086C21.6077 17.497 21.0078 16.756 20.2315 15.8738C19.8081 15.3798 19.173 14.8329 18.9789 14.5682C18.7142 14.2154 18.7848 14.0742 18.9789 13.7567C18.9612 13.7567 21.1843 10.6162 21.4136 9.55766Z" fill="white"/>
</svg>
