<svg width="25" height="25" viewBox="0 0 25 25" fill="none" xmlns="http://www.w3.org/2000/svg">
<path d="M12.5 25C19.4036 25 25 19.4036 25 12.5C25 5.59644 19.4036 0 12.5 0C5.59644 0 0 5.59644 0 12.5C0 19.4036 5.59644 25 12.5 25Z" fill="#25D366"/>
<path fill-rule="evenodd" clip-rule="evenodd" d="M12.9121 19.4544H12.909C11.665 19.454 10.4427 19.1419 9.35703 18.5497L5.41675 19.5833L6.47123 15.7317C5.82078 14.6044 5.47851 13.3258 5.47907 12.0157C5.4807 7.91754 8.81509 4.58333 12.912 4.58333C14.9004 4.58419 16.7667 5.35826 18.17 6.76323C19.5733 8.16813 20.3457 10.0356 20.3449 12.0216C20.3433 16.1189 17.0102 19.4528 12.9121 19.4544ZM9.5396 17.2041L9.76519 17.338C10.7137 17.9009 11.801 18.1987 12.9096 18.1991H12.9121C16.3172 18.1991 19.0886 15.4277 19.0899 12.0212C19.0906 10.3704 18.4486 8.81827 17.2822 7.65051C16.1158 6.48275 14.5647 5.83934 12.9145 5.83876C9.50681 5.83876 6.73538 8.60995 6.73403 12.0162C6.73355 13.1835 7.06017 14.3204 7.67859 15.304L7.82548 15.5377L7.20138 17.8175L9.5396 17.2041ZM16.4024 13.6219C16.5319 13.6845 16.6194 13.7268 16.6567 13.7891C16.7031 13.8666 16.7031 14.2384 16.5485 14.6723C16.3936 15.1061 15.6517 15.5021 15.2948 15.5554C14.9749 15.6032 14.5699 15.6232 14.1251 15.4818C13.8553 15.3962 13.5094 15.2819 13.0663 15.0906C11.3252 14.3388 10.1485 12.6512 9.92615 12.3323C9.91057 12.31 9.89968 12.2943 9.8936 12.2862L9.8921 12.2842C9.79381 12.1531 9.13525 11.2744 9.13525 10.365C9.13525 9.50949 9.55547 9.06109 9.74891 8.85469C9.76216 8.84055 9.77435 8.82754 9.78526 8.81562C9.95549 8.62968 10.1567 8.5832 10.2805 8.5832C10.4043 8.5832 10.5283 8.58434 10.6365 8.58978C10.6498 8.59045 10.6637 8.59037 10.6781 8.59028C10.7863 8.58965 10.9212 8.58886 11.0543 8.90859C11.1056 9.03164 11.1805 9.21408 11.2595 9.40648C11.4193 9.79554 11.5959 10.2254 11.627 10.2876C11.6734 10.3806 11.7043 10.489 11.6424 10.613C11.6331 10.6316 11.6246 10.6491 11.6163 10.6659C11.5698 10.7608 11.5356 10.8306 11.4567 10.9228C11.4257 10.959 11.3936 10.9981 11.3615 11.0371C11.2977 11.115 11.2338 11.1928 11.1781 11.2482C11.0852 11.3408 10.9884 11.4413 11.0967 11.6272C11.205 11.8131 11.5778 12.4213 12.1299 12.9138C12.7234 13.4432 13.2392 13.6669 13.5007 13.7803C13.5518 13.8025 13.5931 13.8204 13.6235 13.8356C13.8091 13.9286 13.9174 13.913 14.0258 13.7891C14.1341 13.6652 14.4901 13.2468 14.6139 13.0609C14.7376 12.875 14.8615 12.906 15.0317 12.9679C15.202 13.03 16.1151 13.4792 16.3008 13.5722C16.3371 13.5903 16.371 13.6067 16.4024 13.6219Z" fill="#FDFDFD"/>
</svg>
