<svg width="25" height="25" viewBox="0 0 25 25" fill="none" xmlns="http://www.w3.org/2000/svg">
<path d="M0 12.5C0 5.59644 5.59644 0 12.5 0C19.4036 0 25 5.59644 25 12.5C25 19.4036 19.4036 25 12.5 25C5.59644 25 0 19.4036 0 12.5Z" fill="#FF0000"/>
<path d="M18.8881 9.41314C18.7347 8.82407 18.2829 8.36021 17.7092 8.20278C16.6695 7.91667 12.5 7.91667 12.5 7.91667C12.5 7.91667 8.33057 7.91667 7.2908 8.20278C6.71709 8.36021 6.26527 8.82407 6.11193 9.41314C5.83337 10.4808 5.83337 12.7083 5.83337 12.7083C5.83337 12.7083 5.83337 14.9358 6.11193 16.0035C6.26527 16.5926 6.71709 17.0565 7.2908 17.214C8.33057 17.5 12.5 17.5 12.5 17.5C12.5 17.5 16.6695 17.5 17.7092 17.214C18.2829 17.0565 18.7347 16.5926 18.8881 16.0035C19.1667 14.9358 19.1667 12.7083 19.1667 12.7083C19.1667 12.7083 19.1667 10.4808 18.8881 9.41314Z" fill="white"/>
<path d="M11.25 15V10.8333L14.5833 12.9167L11.25 15Z" fill="#FF0000"/>
</svg>
