<svg width="24" height="25" viewBox="0 0 24 25" fill="none" xmlns="http://www.w3.org/2000/svg">
<g clip-path="url(#clip0_58_540)">
<path d="M12 6.13773C15.79 6.13773 19.17 8.26773 20.82 11.6377C19.17 15.0077 15.79 17.1377 12 17.1377C8.21 17.1377 4.83 15.0077 3.18 11.6377C4.83 8.26773 8.21 6.13773 12 6.13773ZM12 4.13773C7 4.13773 2.73 7.24773 1 11.6377C2.73 16.0277 7 19.1377 12 19.1377C17 19.1377 21.27 16.0277 23 11.6377C21.27 7.24773 17 4.13773 12 4.13773ZM12 9.13773C13.38 9.13773 14.5 10.2577 14.5 11.6377C14.5 13.0177 13.38 14.1377 12 14.1377C10.62 14.1377 9.5 13.0177 9.5 11.6377C9.5 10.2577 10.62 9.13773 12 9.13773ZM12 7.13773C9.52 7.13773 7.5 9.15773 7.5 11.6377C7.5 14.1177 9.52 16.1377 12 16.1377C14.48 16.1377 16.5 14.1177 16.5 11.6377C16.5 9.15773 14.48 7.13773 12 7.13773Z" fill="#9D9D9D"/>
</g>
<defs>
<clipPath id="clip0_58_540">
<rect width="24" height="24" fill="white" transform="translate(0 0.137726)"/>
</clipPath>
</defs>
</svg>
