<svg width="406" height="430" viewBox="0 0 406 430" fill="none" xmlns="http://www.w3.org/2000/svg">
<path d="M77.5361 191.485L106.96 429.382H112.801L83.3774 191.485H77.5361Z" fill="#D2DCFF"/>
<path d="M203.954 281.718L221.765 429.38H227.606L209.796 281.718H203.954Z" fill="#D2DCFF"/>
<path d="M282.662 281.716L300.473 429.38H306.316L290.429 297.674L288.505 281.716H282.662Z" fill="#D2DCFF"/>
<path d="M203.954 429.38H209.796L227.606 281.716H221.763L203.954 429.38Z" fill="#D2DCFF"/>
<path d="M125.244 429.38H131.087L144.91 314.768H144.912L148.898 281.716H143.055L138.991 315.405L125.244 429.38Z" fill="#D2DCFF"/>
<path d="M282.379 183.009H288.221V272.33H282.379V183.009Z" fill="#D2DCFF"/>
<path d="M203 183.009H208.841V272.33H203V183.009Z" fill="#D2DCFF"/>
<path d="M140.604 272.329H220.864C218.272 272.329 216.17 274.431 216.17 277.022C216.17 279.614 218.272 281.716 220.864 281.716H140.604C138.012 281.716 135.91 279.614 135.91 277.022C135.91 274.431 138.01 272.329 140.604 272.329Z" fill="#D2DCFF"/>
<path d="M216.17 277.022C216.17 274.431 218.272 272.329 220.864 272.329H290.161C292.754 272.329 294.855 274.431 294.855 277.022C294.855 279.614 292.753 281.716 290.161 281.716H220.864C218.27 281.718 216.17 279.616 216.17 277.022Z" fill="#86A2E2"/>
<path d="M200.559 183.009H290.659C295.56 183.009 299.533 179.035 299.533 174.135V124.665C299.533 119.764 295.56 115.791 290.659 115.791H200.559C195.658 115.791 191.685 119.764 191.685 124.665V174.135C191.685 179.035 195.658 183.009 200.559 183.009Z" fill="#D2DCFF"/>
<path d="M282.662 281.716L284.665 298.324C286.775 298.086 288.705 297.869 290.429 297.674L288.504 281.716H282.662Z" fill="#AEC3FF"/>
<path d="M221.763 281.716L218.862 305.762C220.846 305.538 222.822 305.316 224.785 305.094L227.604 281.715H221.763V281.716Z" fill="#AEC3FF"/>
<path d="M138.991 315.405C140.876 315.204 142.852 314.99 144.909 314.768H144.91L148.896 281.716H143.053L138.991 315.405Z" fill="#AEC3FF"/>
<path d="M288.221 183.009H282.378V195.344L288.221 194.699V183.009Z" fill="#AEC3FF"/>
<path d="M203.001 183.009V204.132L208.841 203.486V183.009L203.001 183.009Z" fill="#AEC3FF"/>
<path d="M191.575 26.2595C198.439 37.6141 219.417 53.9525 250.611 43.9797V43.9815C250.709 43.9676 250.806 43.9589 250.908 43.9589C258.329 43.9589 258.847 64.5971 246.358 65.7897C246.174 66.3955 245.985 66.9719 245.792 67.51V101.072H217.624V88.0267C215.66 88.5805 213.779 88.8982 212.055 88.8982C200.404 88.8982 180.149 70.9245 179.689 42.6101C182.807 41.9071 191.575 34.1805 191.575 26.2595Z" fill="#FCBEB7"/>
<path d="M173.771 34.375C173.771 15.7261 190.219 0.616699 214.883 0.616699C235.381 0.616699 242.425 11.9279 242.425 11.9279C242.425 11.9279 261.799 16.1149 261.799 40.1903C261.799 62.5696 261.799 101.074 261.799 101.074H179.273V50.9338C177.252 48.455 173.771 42.94 173.771 34.375ZM212.053 88.8982C213.777 88.8982 215.659 88.5805 217.622 88.0268V101.072H245.791V67.51C245.984 66.9719 246.173 66.3956 246.357 65.7898C258.845 64.5972 258.328 43.9589 250.907 43.9589C250.806 43.9589 250.707 43.9676 250.61 43.9815V43.9798C219.415 53.9526 198.437 37.6124 191.573 26.2596C191.573 34.1823 182.805 41.9071 179.686 42.6119C180.149 70.9246 200.404 88.8982 212.053 88.8982Z" fill="#311643"/>
<path d="M267.854 98.5985L245.791 88.3775L233.685 88.6969L217.622 89.4537L194.541 96.4633V125.913H267.854V98.5985Z" fill="#FCBEB7"/>
<path d="M194.541 127.717V96.4633L217.624 89.4538L217.624 88.0267C224.151 86.1849 231.57 81.7238 237.019 77.5611L194.541 127.717Z" fill="#F9AFAB"/>
<path d="M232.667 66.5154C228.423 66.5154 224.982 63.0748 224.982 58.8305C224.982 54.5863 228.423 51.1457 232.667 51.1457C236.912 51.1457 240.352 54.5863 240.352 58.8305C240.352 63.0748 236.912 66.5154 232.667 66.5154Z" fill="#F49795"/>
<path d="M180.677 52.451C181.65 57.6119 183.284 62.3179 185.346 66.505C189.41 66.3036 192.642 62.9446 192.642 58.8305C192.642 54.5862 189.202 51.1474 184.957 51.1474C183.374 51.1474 181.9 51.6265 180.677 52.451Z" fill="#F49795"/>
<path d="M193.675 35.46C199.286 35.46 203.919 39.7251 204.502 45.1845C207.552 43.7489 210.245 44.5266 211.667 45.1793C212.253 39.7234 216.883 35.46 222.492 35.46C228.496 35.46 233.381 40.3448 233.381 46.3493C233.381 52.3538 228.496 57.2387 222.492 57.2387C216.621 57.2387 211.823 52.5691 211.613 46.7486C210.708 46.2278 207.835 44.9016 204.554 46.7607C204.337 52.5743 199.541 57.2387 193.675 57.2387C187.671 57.2387 182.786 52.3538 182.786 46.3493C182.784 40.3448 187.669 35.46 193.675 35.46ZM222.492 55.8135C227.71 55.8135 231.956 51.5675 231.956 46.3493C231.956 41.1294 227.71 36.8834 222.492 36.8834C217.272 36.8834 213.026 41.1294 213.026 46.3493C213.026 51.5692 217.272 55.8135 222.492 55.8135ZM193.675 55.8135C198.894 55.8135 203.141 51.5675 203.141 46.3493C203.141 41.1294 198.895 36.8834 193.675 36.8834C188.456 36.8834 184.21 41.1294 184.21 46.3493C184.21 51.5692 188.456 55.8135 193.675 55.8135Z" fill="white"/>
<path d="M193.667 53.3138C194.524 53.3138 195.22 52.6177 195.22 51.7602V48.8577C195.22 48.0002 194.524 47.3041 193.667 47.3041C192.809 47.3041 192.113 48.0002 192.113 48.8577V51.7602C192.113 52.6177 192.809 53.3138 193.667 53.3138Z" fill="#311643"/>
<path d="M222.017 53.3138C222.877 53.3138 223.571 52.6177 223.571 51.7602V48.8577C223.571 48.0002 222.875 47.3041 222.017 47.3041C221.16 47.3041 220.464 48.0002 220.464 48.8577V51.7602C220.464 52.6177 221.16 53.3138 222.017 53.3138Z" fill="#311643"/>
<path d="M210.923 71.7701C213.697 71.7701 215.586 70.7268 216.73 69.7772C218.173 68.5794 218.772 67.2723 218.798 67.2167C218.959 66.8574 218.799 66.4356 218.44 66.2741C218.082 66.1127 217.661 66.2724 217.499 66.6283C217.418 66.8054 215.447 70.9351 209.724 70.2737C209.332 70.2286 208.979 70.508 208.934 70.8986C208.889 71.2892 209.168 71.6433 209.559 71.6885C210.038 71.7458 210.491 71.7701 210.923 71.7701Z" fill="#311643"/>
<path d="M147.162 418.279L173.003 407.171L171.678 413.574L203.464 403.593V412.701C203.464 415.904 201.789 418.808 199.156 420.44L196.422 428.255C196.186 428.93 195.549 429.383 194.832 429.383C193.901 429.383 193.148 428.63 193.148 427.7V422.613L171.423 429.382H149.447C146.251 429.382 143.661 426.792 143.661 423.596C143.661 421.282 145.037 419.192 147.162 418.279Z" fill="#2F3D6C"/>
<path d="M90.8125 418.279L116.653 407.171L115.329 413.574L147.115 403.593V412.701C147.115 415.904 145.44 418.808 142.807 420.44L140.073 428.255C139.836 428.93 139.199 429.383 138.482 429.383C137.552 429.383 136.799 428.63 136.799 427.7V422.613L115.074 429.382H93.097C89.9012 429.382 87.3112 426.792 87.3112 423.596C87.3129 421.282 88.6894 419.192 90.8125 418.279Z" fill="#2F3D6C"/>
<path d="M203.464 391.478L203.449 403.591L171.676 413.574L173.003 407.171L175.641 405.823L173.334 391.478H203.464Z" fill="#FCBEB7"/>
<path d="M147.115 391.478L147.101 403.591L115.329 413.574L116.653 407.171L119.294 405.827L116.985 391.478H147.115Z" fill="#FCBEB7"/>
<path d="M226.255 220.817C226.278 249.421 203.094 272.622 174.488 272.622H150.441L147.113 391.476H116.983L94.7668 249.763C92.2896 233.961 104.507 219.678 120.502 219.678H226.255V220.817Z" fill="#1E96C8"/>
<path d="M152.51 258.651L150.443 272.624H154.831L152.51 258.651Z" fill="#4A5EA3"/>
<path d="M273.526 241.27C272.017 259 257.186 272.624 239.391 272.624H206.79L203.463 391.478H173.333L151.351 251.263C148.75 234.673 161.575 219.682 178.367 219.682H180.778L187.694 199.009H267.063L273.097 232.248C273.639 235.222 273.783 238.256 273.526 241.27Z" fill="#37AEE2"/>
<path d="M227.198 112.625C221.848 112.625 217.569 107.472 214.684 102.254H245.194C240.54 107.458 234.167 112.625 227.198 112.625Z" fill="white"/>
<path d="M169.857 113.418L171.968 110.132C174.709 105.865 178.566 102.469 183.083 100.287C184.342 99.6816 185.649 99.1696 187.001 98.7582L210.509 91.5993C210.509 92.4499 211.988 97.3798 214.682 102.253C217.567 107.471 221.846 112.623 227.196 112.623C234.166 112.623 240.538 107.457 245.192 102.253C249.914 96.9719 252.863 91.6513 252.863 91.6513L273.869 101.385C282.467 105.369 288.797 113.033 291.085 122.229L300.448 152.151C302.05 157.272 302.866 162.607 302.866 167.972V170.451C302.866 176.883 297.651 182.096 291.22 182.096H268.825L267.063 199.007H187.695L167.691 116.789L169.857 113.418Z" fill="#FFBB0C"/>
<path d="M226.415 120.048C230.828 120.048 235.317 118.704 239.761 116.057C243.288 113.954 246.794 111.029 250.183 107.361C255.934 101.135 259.439 94.7796 259.473 94.7171L258.293 94.1703C258.258 94.2328 254.861 100.394 249.212 106.504C245.911 110.076 242.503 112.918 239.085 114.953C234.85 117.475 230.586 118.753 226.415 118.753C222.478 118.753 218.931 117.438 215.874 114.848C213.401 112.751 211.231 109.816 209.427 106.124C206.327 99.779 205.379 93.2312 205.37 93.1669L204.082 93.5593C204.121 93.8283 205.068 100.138 208.25 106.665C210.132 110.526 212.411 113.607 215.024 115.826C218.324 118.626 222.157 120.048 226.415 120.048Z" fill="white"/>
<path d="M94.7462 249.607C97.3779 252.442 101.138 254.216 105.313 254.216C113.277 254.216 119.736 247.758 119.736 239.792C119.736 231.826 113.279 225.37 105.313 225.37C104.938 225.37 104.564 225.384 104.196 225.412C97.265 230.991 93.2985 240.009 94.7462 249.607Z" fill="#0686BB"/>
<path d="M151.019 246.646C153.458 251.154 158.226 254.214 163.71 254.214C171.676 254.214 178.132 247.757 178.132 239.791C178.132 231.825 171.674 225.369 163.71 225.369C162.934 225.369 162.174 225.431 161.432 225.549C155.135 230.531 151.118 238.199 151.019 246.646Z" fill="#1E96C8"/>
<path d="M292.393 182.098H205.308V171.106L291.197 161.223C297.414 160.508 302.866 165.369 302.866 171.627C302.866 177.409 298.177 182.098 292.393 182.098Z" fill="#FCBEB7"/>
<path d="M96.3617 116.789H185.343C188.91 116.789 192.047 119.152 193.031 122.582L208.415 176.173H242.388C243.994 176.173 245.364 177.423 245.419 179.027C245.48 180.712 244.131 182.098 242.459 182.098H109.513L92.3084 122.167C91.5377 119.473 93.56 116.789 96.3617 116.789Z" fill="#4A5EA3"/>
<path d="M144.313 151.745C144.093 149.243 145.305 147.092 147.019 146.941C148.734 146.791 150.302 148.697 150.522 151.199C150.742 153.702 149.53 155.852 147.816 156.003C146.102 156.154 144.533 154.247 144.313 151.745Z" fill="#2F3D6C"/>
<path d="M267.064 199.007L270.239 216.498L185.872 204.46L187.697 199.007H267.064Z" fill="#0686BB"/>
<path d="M271.632 106.381C271.632 111.658 275.909 115.935 281.188 115.935C283.599 115.935 285.802 115.041 287.484 113.567C284.295 108.302 279.584 104.034 273.873 101.386L273.232 101.09C272.22 102.603 271.632 104.424 271.632 106.381Z" fill="#FFAA29"/>
<path d="M169.857 113.418C171.338 114.362 173.096 114.907 174.981 114.907C180.259 114.907 184.538 110.63 184.538 105.353C184.538 103.494 184.005 101.756 183.085 100.288C178.566 102.468 174.709 105.863 171.97 110.132L169.857 113.418Z" fill="#FFBB0C"/>
<path d="M200.414 148.292C200.784 149.579 216.945 166.983 216.945 166.983L260.008 164.81L206.91 170.92L200.414 148.292Z" fill="#FFAA29"/>
<path d="M370.515 191.485L378.385 255.134L399.938 429.382H405.78L384.289 255.631L376.356 191.485H370.515Z" fill="#D2DCFF"/>
<path d="M293.199 429.382H299.042L321.19 250.31L328.465 191.485H322.624L315.408 249.822L293.199 429.382Z" fill="#D2DCFF"/>
<path d="M376.356 191.485H370.515L378.385 255.134L384.289 255.631L376.356 191.485Z" fill="#AEC3FF"/>
<path d="M322.624 191.485L315.408 249.822L321.19 250.31L328.465 191.485H322.624Z" fill="#AEC3FF"/>
<path d="M0.220459 429.382H6.06348L31.2359 225.858L35.4871 191.485H29.6441L25.4535 225.37L0.220459 429.382Z" fill="#D2DCFF"/>
<path d="M25.4535 225.37L31.2359 225.858L35.4871 191.485H29.6441L25.4535 225.37Z" fill="#AEC3FF"/>
<path d="M14.1632 182.098H312.108V191.485H14.1632C11.5698 191.485 9.46935 189.383 9.46935 186.791C9.46935 184.198 11.5715 182.098 14.1632 182.098Z" fill="#D2DCFF"/>
<path d="M390.361 182.098C392.953 182.098 395.055 184.2 395.055 186.791C395.055 189.383 392.953 191.485 390.361 191.485L312.108 191.485V182.098L390.361 182.098Z" fill="#86A2E2"/>
<path d="M20.8638 171.604V169.21C20.8638 168.471 21.4644 167.87 22.2039 167.87H77.734C80.5358 167.87 82.8063 170.141 82.8063 172.942V177.023C82.8063 179.825 80.5358 182.096 77.734 182.096H22.2039C21.4644 182.096 20.8638 181.495 20.8638 180.756V178.362C20.8638 177.622 21.4644 177.022 22.2039 177.022H75.6942C76.8208 177.022 77.734 176.109 77.734 174.982C77.734 173.855 76.8208 172.942 75.6942 172.942H22.2039C21.4644 172.942 20.8638 172.343 20.8638 171.604Z" fill="#6277D7"/>
<path d="M23.2626 172.942V177.023H75.694C76.8206 177.023 77.7338 176.11 77.7338 174.984C77.7338 173.857 76.8206 172.944 75.694 172.944H23.2626V172.942Z" fill="#D2DCFF"/>
<path d="M24.8324 157.376V154.982C24.8324 154.243 25.4329 153.642 26.1724 153.642H73.7676C76.5694 153.642 78.8399 155.913 78.8399 158.715V162.796C78.8399 165.598 76.5694 167.868 73.7676 167.868H26.1724C25.4329 167.868 24.8324 167.268 24.8324 166.528V164.136C24.8324 163.396 25.4329 162.796 26.1724 162.796H71.728C72.8546 162.796 73.7676 161.883 73.7676 160.756C73.7676 159.63 72.8546 158.716 71.728 158.716H26.1724C25.4312 158.716 24.8324 158.116 24.8324 157.376Z" fill="#F9A0C0"/>
<path d="M26.5958 158.716V162.797H71.7259C72.8525 162.797 73.7657 161.884 73.7657 160.758C73.7657 159.631 72.8525 158.718 71.7259 158.718H26.5958V158.716Z" fill="#FFD9E8"/>
<path d="M346.599 159.269H320.395C319.102 159.269 318.1 160.397 318.255 161.682L320.472 180.199C320.602 181.282 321.52 182.098 322.612 182.098H344.384C345.476 182.098 346.394 181.282 346.524 180.199L348.741 161.682C348.894 160.397 347.892 159.269 346.599 159.269Z" fill="#D2DCFF"/>
<path d="M324.503 151.712V143.291L329.54 152.863V137.318L333.498 147.105L337.456 137.318V152.863L342.494 143.291V151.712L349.833 139.91L346.599 159.269H320.395L317.161 139.91L324.503 151.712Z" fill="#6277D7"/>
<path d="M292.251 178.577C288.411 178.577 285.299 175.464 285.299 171.625C285.299 167.785 288.411 164.672 292.251 164.672C296.091 164.672 299.203 167.785 299.203 171.625C299.203 175.464 296.091 178.577 292.251 178.577Z" fill="#F9AFAB"/>
</svg>
