<svg width="175" height="32" viewBox="0 0 175 32" fill="none" xmlns="http://www.w3.org/2000/svg">
<path d="M5.304 16.456C5.304 17.928 5.63467 19.112 6.296 20.008C6.95733 20.904 7.93867 21.352 9.24 21.352C9.66667 21.352 10.0613 21.3413 10.424 21.32C10.7867 21.2773 11.0853 21.2347 11.32 21.192V12.52C11.0213 12.328 10.6267 12.168 10.136 12.04C9.66667 11.912 9.18667 11.848 8.696 11.848C6.43467 11.848 5.304 13.384 5.304 16.456ZM16.088 24.456C15.6613 24.584 15.1707 24.712 14.616 24.84C14.0613 24.9467 13.4747 25.0427 12.856 25.128C12.2587 25.2133 11.64 25.2773 11 25.32C10.3813 25.384 9.784 25.416 9.208 25.416C7.82133 25.416 6.584 25.2133 5.496 24.808C4.408 24.4027 3.49067 23.8267 2.744 23.08C1.99733 22.312 1.42133 21.3947 1.016 20.328C0.632 19.24 0.44 18.024 0.44 16.68C0.44 15.3147 0.610667 14.088 0.952 13C1.29333 11.8907 1.784 10.952 2.424 10.184C3.064 9.416 3.84267 8.82933 4.76 8.424C5.69867 8.01867 6.76533 7.816 7.96 7.816C8.62133 7.816 9.208 7.88 9.72 8.008C10.2533 8.136 10.7867 8.31733 11.32 8.552V0.935999L16.088 0.167999V24.456ZM34.9205 24.424C34.1098 24.6587 33.0645 24.872 31.7845 25.064C30.5045 25.2773 29.1605 25.384 27.7525 25.384C26.3232 25.384 25.1285 25.192 24.1685 24.808C23.2298 24.424 22.4832 23.8907 21.9285 23.208C21.3738 22.504 20.9792 21.672 20.7445 20.712C20.5098 19.752 20.3925 18.696 20.3925 17.544V8.168H25.1605V16.968C25.1605 18.504 25.3632 19.6133 25.7685 20.296C26.1738 20.9787 26.9312 21.32 28.0405 21.32C28.3818 21.32 28.7445 21.3093 29.1285 21.288C29.5125 21.2453 29.8538 21.2027 30.1525 21.16V8.168H34.9205V24.424ZM55.1403 16.552C55.1403 17.8747 54.9483 19.0907 54.5643 20.2C54.1803 21.288 53.6256 22.2267 52.9003 23.016C52.1749 23.784 51.3003 24.3813 50.2763 24.808C49.2736 25.2347 48.1429 25.448 46.8843 25.448C45.6469 25.448 44.5163 25.2347 43.4923 24.808C42.4896 24.3813 41.6256 23.784 40.9003 23.016C40.1749 22.2267 39.6096 21.288 39.2043 20.2C38.7989 19.0907 38.5963 17.8747 38.5963 16.552C38.5963 15.2293 38.7989 14.024 39.2043 12.936C39.6309 11.848 40.2069 10.92 40.9323 10.152C41.6789 9.384 42.5536 8.78667 43.5563 8.36C44.5803 7.93333 45.6896 7.72 46.8843 7.72C48.1003 7.72 49.2096 7.93333 50.2123 8.36C51.2363 8.78667 52.1109 9.384 52.8363 10.152C53.5616 10.92 54.1269 11.848 54.5323 12.936C54.9376 14.024 55.1403 15.2293 55.1403 16.552ZM50.2763 16.552C50.2763 15.08 49.9776 13.928 49.3803 13.096C48.8043 12.2427 47.9723 11.816 46.8843 11.816C45.7963 11.816 44.9536 12.2427 44.3563 13.096C43.7589 13.928 43.4603 15.08 43.4603 16.552C43.4603 18.024 43.7589 19.1973 44.3563 20.072C44.9536 20.9253 45.7963 21.352 46.8843 21.352C47.9723 21.352 48.8043 20.9253 49.3803 20.072C49.9776 19.1973 50.2763 18.024 50.2763 16.552ZM65.5538 25.32C64.1671 25.2987 63.0364 25.1493 62.1618 24.872C61.3084 24.5947 60.6258 24.2107 60.1138 23.72C59.6231 23.208 59.2818 22.6 59.0898 21.896C58.9191 21.1707 58.8338 20.36 58.8338 19.464V0.935999L63.6018 0.167999V18.504C63.6018 18.9307 63.6338 19.3147 63.6978 19.656C63.7618 19.9973 63.8791 20.2853 64.0498 20.52C64.2418 20.7547 64.5084 20.9467 64.8498 21.096C65.1911 21.2453 65.6498 21.3413 66.2258 21.384L65.5538 25.32ZM73.7268 25H68.9588V8.168H73.7268V25ZM74.1748 3.304C74.1748 4.17867 73.8868 4.872 73.3108 5.384C72.7561 5.87467 72.0948 6.12 71.3268 6.12C70.5588 6.12 69.8868 5.87467 69.3108 5.384C68.7561 4.872 68.4788 4.17867 68.4788 3.304C68.4788 2.42933 68.7561 1.74667 69.3108 1.256C69.8868 0.743999 70.5588 0.487999 71.3268 0.487999C72.0948 0.487999 72.7561 0.743999 73.3108 1.256C73.8868 1.74667 74.1748 2.42933 74.1748 3.304ZM78.2088 8.744C79.0194 8.50933 80.0648 8.296 81.3448 8.104C82.6248 7.89067 83.9688 7.784 85.3767 7.784C86.8061 7.784 87.9901 7.976 88.9288 8.36C89.8888 8.72267 90.6461 9.24533 91.2008 9.928C91.7554 10.6107 92.1501 11.4213 92.3848 12.36C92.6194 13.2987 92.7368 14.344 92.7368 15.496V25H87.9688V16.072C87.9688 14.536 87.7661 13.448 87.3608 12.808C86.9554 12.168 86.1981 11.848 85.0888 11.848C84.7474 11.848 84.3848 11.8693 84.0008 11.912C83.6168 11.9333 83.2754 11.9653 82.9768 12.008V25H78.2088V8.744ZM101.117 16.04C101.117 18.7067 102.194 20.04 104.349 20.04C104.839 20.04 105.298 19.976 105.725 19.848C106.151 19.72 106.514 19.5707 106.813 19.4V11.784C106.578 11.7413 106.301 11.7093 105.981 11.688C105.661 11.6453 105.287 11.624 104.861 11.624C103.602 11.624 102.663 12.04 102.045 12.872C101.426 13.704 101.117 14.76 101.117 16.04ZM111.581 22.888C111.581 25.64 110.877 27.6773 109.469 29C108.082 30.344 105.927 31.016 103.005 31.016C101.981 31.016 100.957 30.92 99.9325 30.728C98.9085 30.5573 97.9592 30.3227 97.0845 30.024L97.9165 26.024C98.6632 26.3227 99.4418 26.5573 100.253 26.728C101.085 26.8987 102.023 26.984 103.069 26.984C104.434 26.984 105.394 26.6853 105.949 26.088C106.525 25.4907 106.813 24.7227 106.813 23.784V23.176C106.301 23.4107 105.767 23.592 105.213 23.72C104.679 23.8267 104.093 23.88 103.453 23.88C101.127 23.88 99.3458 23.1973 98.1085 21.832C96.8712 20.4453 96.2525 18.5147 96.2525 16.04C96.2525 14.8027 96.4445 13.6827 96.8285 12.68C97.2125 11.656 97.7672 10.7813 98.4925 10.056C99.2392 9.33067 100.146 8.776 101.213 8.392C102.279 7.98667 103.485 7.784 104.829 7.784C105.405 7.784 105.991 7.816 106.589 7.88C107.207 7.92267 107.815 7.98667 108.413 8.072C109.01 8.15733 109.575 8.264 110.109 8.392C110.663 8.49867 111.154 8.616 111.581 8.744V22.888ZM131.797 16.552C131.797 17.8747 131.605 19.0907 131.221 20.2C130.837 21.288 130.282 22.2267 129.557 23.016C128.831 23.784 127.957 24.3813 126.933 24.808C125.93 25.2347 124.799 25.448 123.541 25.448C122.303 25.448 121.173 25.2347 120.149 24.808C119.146 24.3813 118.282 23.784 117.557 23.016C116.831 22.2267 116.266 21.288 115.861 20.2C115.455 19.0907 115.253 17.8747 115.253 16.552C115.253 15.2293 115.455 14.024 115.861 12.936C116.287 11.848 116.863 10.92 117.589 10.152C118.335 9.384 119.21 8.78667 120.213 8.36C121.237 7.93333 122.346 7.72 123.541 7.72C124.757 7.72 125.866 7.93333 126.869 8.36C127.893 8.78667 128.767 9.384 129.493 10.152C130.218 10.92 130.783 11.848 131.189 12.936C131.594 14.024 131.797 15.2293 131.797 16.552ZM126.933 16.552C126.933 15.08 126.634 13.928 126.037 13.096C125.461 12.2427 124.629 11.816 123.541 11.816C122.453 11.816 121.61 12.2427 121.013 13.096C120.415 13.928 120.117 15.08 120.117 16.552C120.117 18.024 120.415 19.1973 121.013 20.072C121.61 20.9253 122.453 21.352 123.541 21.352C124.629 21.352 125.461 20.9253 126.037 20.072C126.634 19.1973 126.933 18.024 126.933 16.552ZM139.193 22.472C139.193 23.432 138.884 24.168 138.265 24.68C137.668 25.1707 136.985 25.416 136.217 25.416C135.449 25.416 134.756 25.1707 134.137 24.68C133.54 24.168 133.241 23.432 133.241 22.472C133.241 21.512 133.54 20.7867 134.137 20.296C134.756 19.784 135.449 19.528 136.217 19.528C136.985 19.528 137.668 19.784 138.265 20.296C138.884 20.7867 139.193 21.512 139.193 22.472ZM147.164 14.248C147.634 13.736 148.114 13.2027 148.604 12.648C149.116 12.0933 149.607 11.5493 150.076 11.016C150.546 10.4613 150.983 9.93867 151.388 9.448C151.815 8.95733 152.178 8.53067 152.476 8.168H158.14C157.01 9.46933 155.9 10.7173 154.812 11.912C153.746 13.0853 152.572 14.3013 151.292 15.56C151.932 16.136 152.594 16.8293 153.276 17.64C153.959 18.4293 154.62 19.2507 155.26 20.104C155.9 20.9573 156.487 21.8107 157.02 22.664C157.554 23.5173 158.002 24.296 158.364 25H152.892C152.551 24.4453 152.156 23.8373 151.708 23.176C151.282 22.4933 150.823 21.8213 150.332 21.16C149.842 20.4773 149.319 19.8267 148.764 19.208C148.231 18.5893 147.698 18.0667 147.164 17.64V25H142.396V0.935999L147.164 0.167999V14.248ZM174.036 11.368C173.652 11.7947 173.13 12.3707 172.468 13.096C171.828 13.8213 171.135 14.6213 170.388 15.496C169.642 16.3707 168.884 17.288 168.116 18.248C167.37 19.208 166.687 20.136 166.068 21.032H174.196V25H160.276V22.184C160.724 21.416 161.258 20.5947 161.876 19.72C162.516 18.824 163.178 17.928 163.86 17.032C164.564 16.136 165.258 15.272 165.94 14.44C166.623 13.5867 167.252 12.8187 167.828 12.136H160.66V8.168H174.036V11.368Z" fill="#252726"/>
</svg>
